<svg width="36" height="37" viewBox="0 0 36 37" fill="none" xmlns="http://www.w3.org/2000/svg">
<g clip-path="url(#clip0_17_6)">
<path d="M3.39452 8.18855L3.78714 8.70363C3.87386 8.81738 4.00852 8.86441 4.14834 8.84564L3.6928 9.33016C3.6928 9.33016 3.65338 9.48521 3.88911 9.58771C4.12493 9.69029 4.36424 9.13435 4.36424 9.13435L4.18574 8.83918C4.20032 8.83607 4.215 8.83241 4.22976 8.82743L4.77352 9.28021C5.08318 9.59508 5.36774 9.49826 5.60597 9.27095L6.1364 8.76468L6.14051 8.76074L6.67089 8.25443C6.90912 8.02711 7.03951 7.72787 6.81046 7.33601L6.49688 6.66374C6.50353 6.64824 6.50913 6.6326 6.51414 6.61699L6.74638 6.86072C6.74638 6.86072 7.27478 6.68413 7.22148 6.40735C7.16825 6.13064 7.02517 6.14975 7.02517 6.14975L6.52569 6.57669C6.5644 6.42514 6.54413 6.26892 6.45744 6.15516L6.06479 5.64002C5.96706 5.51179 5.80893 5.46845 5.65032 5.50777L5.38641 5.16153C5.29716 5.04432 5.09569 5.07274 4.93613 5.22499C4.77676 5.37724 4.71974 5.59552 4.80898 5.71266L5.02849 6.00073L4.45446 6.54851L4.45038 6.55244L3.87628 7.10033L3.65677 6.81226C3.56744 6.69517 3.36577 6.72374 3.20641 6.87587C3.0468 7.0282 2.99003 7.24629 3.07926 7.36347L3.34317 7.7097C3.28351 7.87873 3.2968 8.06027 3.39452 8.18855ZM5.85312 6.01469L6.06438 6.29189L5.54326 6.7893L5.33193 6.51205L5.85312 6.01469ZM5.48905 7.91529L5.49316 7.91136L6.44972 6.99843L6.69443 7.54955L6.69821 7.55718C6.77096 7.69195 6.7282 7.9188 6.60857 8.03301L6.01658 8.59802L6.01248 8.60192L5.42043 9.16689C5.30083 9.28112 5.09387 9.29251 4.98641 9.19088L4.9803 9.18555L4.53259 8.82818L5.48905 7.91529ZM4.27976 7.5163L4.49102 7.79351L3.96986 8.29091L3.75859 8.0137L4.27976 7.5163Z" fill="white"/>
<path d="M3.05766 9.65262H7.90324V9.98329H3.05766V9.65262Z" fill="white"/>
<path d="M6.72121 8.43092L6.74564 8.55833L6.99652 8.49814L6.80391 8.75605L6.99931 8.97916L6.73482 8.97212L6.64899 9.29086L6.48661 9.07656L6.22247 9.17887L6.37658 8.79479L6.27037 8.74142L6.00574 9.40064L6.44934 9.22893L6.6987 9.558L6.8207 9.10475L7.28311 9.1171L6.96083 8.74913L7.30273 8.29148L6.72121 8.43092Z" fill="white"/>
</g>
<g clip-path="url(#clip1_17_6)">
<path d="M36 18.0713C36 8.13016 27.9411 0.0712891 18 0.0712891C8.05887 0.0712891 0 8.13016 0 18.0713C0 28.0124 8.05887 36.0713 18 36.0713C27.9411 36.0713 36 28.0124 36 18.0713Z" fill="#619E90"/>
<path fill-rule="evenodd" clip-rule="evenodd" d="M17.9998 12.1853L17.4071 12.7781L19.6333 15.0042L21.8594 17.2304L16.8144 17.2305L11.7694 17.2306V18.0714V18.9121L16.8144 18.9123L21.8594 18.9124L19.6333 21.1385L17.4071 23.3647L17.9998 23.9575L18.5926 24.5502L21.832 21.3108L25.0714 18.0714L21.832 14.832L18.5926 11.5926L17.9998 12.1853Z" fill="white"/>
</g>
<defs>
<clipPath id="clip0_17_6">
<rect width="5" height="5" fill="white" transform="translate(3 5)"/>
</clipPath>
<clipPath id="clip1_17_6">
<rect width="36" height="37" fill="white"/>
</clipPath>
</defs>
</svg>
